<?xml version="1.0" encoding="utf-8"?>
<!-- Generator: Adobe Illustrator 24.1.2, SVG Export Plug-In . SVG Version: 6.00 Build 0)  -->
<svg version="1.1" id="Layer_1" xmlns="http://www.w3.org/2000/svg" xmlns:xlink="http://www.w3.org/1999/xlink" x="0px" y="0px"
	 viewBox="0 0 103.2 102.8" style="enable-background:new 0 0 103.2 102.8;" xml:space="preserve">
<style type="text/css">
	.Drop_x0020_Shadow{fill:none;}
	.Round_x0020_Corners_x0020_2_x0020_pt{fill:#FFFFFF;stroke:#000000;stroke-miterlimit:10;}
	.Live_x0020_Reflect_x0020_X{fill:none;}
	.Bevel_x0020_Soft{fill:url(#SVGID_1_);}
	.Dusk{fill:#FFFFFF;}
	.Foliage_GS{fill:#FFDD00;}
	.Pompadour_GS{fill-rule:evenodd;clip-rule:evenodd;fill:#44ADE2;}
	.st0{fill:url(#Path_593_1_);}
	.st1{fill:url(#Path_594_1_);}
	.st2{fill:url(#Path_595_1_);}
</style>
<linearGradient id="SVGID_1_" gradientUnits="userSpaceOnUse" x1="0" y1="0" x2="0.7071" y2="0.7071">
	<stop  offset="0" style="stop-color:#DEDFE3"/>
	<stop  offset="0.1738" style="stop-color:#D8D9DD"/>
	<stop  offset="0.352" style="stop-color:#C9CACD"/>
	<stop  offset="0.5323" style="stop-color:#B4B5B8"/>
	<stop  offset="0.7139" style="stop-color:#989A9C"/>
	<stop  offset="0.8949" style="stop-color:#797C7E"/>
	<stop  offset="1" style="stop-color:#656B6C"/>
</linearGradient>
<g id="Group_866" transform="translate(-136 -147)">
	
		<linearGradient id="Path_593_1_" gradientUnits="userSpaceOnUse" x1="135.6221" y1="1339.7778" x2="136.5051" y2="1339.0179" gradientTransform="matrix(103.2055 0 0 -102.7764 -13878.7061 137836.5312)">
		<stop  offset="0.344" style="stop-color:#27235D"/>
		<stop  offset="1" style="stop-color:#D81C4F"/>
	</linearGradient>
	<path id="Path_593" class="st0" d="M233.6,175.3c-13.7-27.1-44.1-32.6-62.8-25.3c0.7,1.4,1.2,2.6,1.8,3.7
		c13.5,23.5,27.5,46.7,39.7,70.9c2.3,4.6,2,5.7-3.2,6.9c-10.5,2.5-21.2,2.5-31.9,1.8c-4.4-0.2-8.8-0.9-13-2.3
		c-2.3-0.8-3.5-2.1-3.5-4.8c-0.3-22.4-0.8-44.7-1.2-67.1c0-1.1,0.3-2.2-0.6-3.1c-18,6.3-28.5,38.8-19.8,60.9
		c10.5,26.6,40.5,39.7,67.2,29.3c0.6-0.2,1.2-0.5,1.9-0.8C235.5,233.3,247,201.9,233.6,175.3z"/>
	
		<linearGradient id="Path_594_1_" gradientUnits="userSpaceOnUse" x1="128.6732" y1="1343.5621" x2="132.8461" y2="1341.5192" gradientTransform="matrix(21.84 0 0 -38.2368 -2701.5266 51523.7344)">
		<stop  offset="0.344" style="stop-color:#27235D"/>
		<stop  offset="1" style="stop-color:#D81C4F"/>
	</linearGradient>
	<path id="Path_594" class="st1" d="M170.9,219.9c0.1,1.2,0,2.4-0.3,3.6c-0.2,0.6-0.7,1.1-1.2,1.5c-0.6,0.4-1.3,0.5-2,0.5h-1.1v1
		H181v-1h-2.2c-1,0-2-0.4-2.7-1.2c-0.5-0.6-0.8-2.1-0.8-4.4v-16.2h6.4v-1.9h-6.4v-1.8c-0.1-2.4,0-4.8,0.4-7.1c0.2-0.8,0.6-1.5,1.2-2
		c0.6-0.5,1.3-0.7,2.1-0.7c0.7,0,1.3,0.2,1.9,0.5c0.7,0.5,1.4,1.2,1.8,2c0.4,0.7,1,1.4,1.7,1.9c0.4,0.3,0.8,0.4,1.3,0.4
		c0.6,0,1.1-0.3,1.5-0.7c0.4-0.4,0.7-0.9,0.7-1.5c-0.1-1.1-0.6-2.1-1.6-2.7c-1.5-1.2-3.3-1.8-5.2-1.8c-1.9,0-3.8,0.5-5.5,1.6
		c-1.6,1-2.8,2.4-3.6,4.1c-0.8,2-1.2,4.1-1.2,6.2v1.6h-4.8v1.9h4.8L170.9,219.9z"/>
	
		<linearGradient id="Path_595_1_" gradientUnits="userSpaceOnUse" x1="126.8994" y1="1347.3108" x2="131.7274" y2="1344.1438" gradientTransform="matrix(18.877 0 0 -24.665 -2283.8547 33378.207)">
		<stop  offset="0.344" style="stop-color:#27235D"/>
		<stop  offset="1" style="stop-color:#D81C4F"/>
	</linearGradient>
	<path id="Path_595" class="st2" d="M191.8,203.2c1.2-0.4,2.4-0.7,3.7-0.7v-0.9h-10.7v0.9c0.5,0,1,0.1,1.5,0.4
		c0.3,0.2,0.4,0.6,0.4,0.9c0,0.2-0.1,0.5-0.2,0.6c-0.7,0.8-1.5,1.6-2.3,2.3l-6.3,5.7l7.6,9.7c0.5,0.6,0.9,1.2,1.1,2
		c0,0.3-0.1,0.6-0.4,0.8c-0.4,0.2-0.9,0.3-1.4,0.3v1h12v-1c-0.8,0-1.6,0-2.3-0.3c-0.9-0.4-1.6-1-2.3-1.6c-0.6-0.6-1.8-2-3.6-4.2
		l-6.3-8l6.3-5.8C189.5,204.5,190.6,203.8,191.8,203.2z"/>
</g>
</svg>
